<?xml version="1.0" encoding="UTF-8" standalone="no"?>
<!-- Created with Inkscape (http://www.inkscape.org/) -->

<svg
   width="210mm"
   height="297mm"
   viewBox="0 0 210 297"
   version="1.1"
   id="svg1"
   xml:space="preserve"
   inkscape:version="1.4.2 (f4327f4, 2025-05-13)"
   sodipodi:docname="logo.svg"
   xmlns:inkscape="http://www.inkscape.org/namespaces/inkscape"
   xmlns:sodipodi="http://sodipodi.sourceforge.net/DTD/sodipodi-0.dtd"
   xmlns="http://www.w3.org/2000/svg"
   xmlns:svg="http://www.w3.org/2000/svg"><sodipodi:namedview
     id="namedview1"
     pagecolor="#ffffff"
     bordercolor="#000000"
     borderopacity="0.25"
     inkscape:showpageshadow="2"
     inkscape:pageopacity="0.0"
     inkscape:pagecheckerboard="0"
     inkscape:deskcolor="#d1d1d1"
     inkscape:document-units="mm"
     inkscape:zoom="1.0167041"
     inkscape:cx="569.97902"
     inkscape:cy="533.09514"
     inkscape:window-width="2554"
     inkscape:window-height="1328"
     inkscape:window-x="861"
     inkscape:window-y="1096"
     inkscape:window-maximized="0"
     inkscape:current-layer="layer1" /><defs
     id="defs1"><rect
       x="-136.71628"
       y="32.457822"
       width="1006.1925"
       height="660.95928"
       id="rect10" /></defs><g
     inkscape:label="Layer 1"
     inkscape:groupmode="layer"
     id="layer1"><g
       id="g10"
       transform="translate(-18.216543,15.093707)"><rect
         style="opacity:0;fill:#aa0000;stroke-width:0.220956"
         id="rect9"
         width="158.75"
         height="158.75"
         x="48.143719"
         y="11.450398"
         inkscape:export-filename="rect10.png"
         inkscape:export-xdpi="96"
         inkscape:export-ydpi="96" /><g
         id="g9"
         transform="translate(-126.07048,-23.887648)"><g
           id="g1"
           transform="translate(202.78439,-20.977695)"><g
             id="g8"><path
               style="fill:#800000;fill-opacity:1"
               d="m 23.372317,185.00528 c 0.191,-0.0764 0.4192,-0.067 0.50712,0.0209 0.0879,0.0879 -0.0683,0.15046 -0.34726,0.13897 -0.30823,-0.0127 -0.37092,-0.0754 -0.15986,-0.15985 z m 55.562501,0 c 0.190996,-0.0764 0.419199,-0.067 0.507118,0.0209 0.08792,0.0879 -0.06835,0.15046 -0.347266,0.13897 -0.308224,-0.0127 -0.370919,-0.0754 -0.159852,-0.15985 z m -55.645181,-0.66459 c -0.29104,-0.16504 -0.60201,-0.40972 -0.69104,-0.54372 -0.089,-0.13401 -0.26762,-0.22829 -0.39687,-0.20951 -0.370008,0.0538 -2.219378,-1.0535 -2.219378,-1.32879 0,-0.13621 -0.18233,-0.24765 -0.40518,-0.24765 -0.22285,0 -0.47345,-0.17791 -0.55689,-0.39536 -0.0834,-0.21744 -0.25914,-0.32896 -0.39044,-0.24781 -0.1313,0.0812 -0.30565,-0.0269 -0.38745,-0.24003 -0.0818,-0.21317 -0.37862,-0.44769 -0.65959,-0.52117 -0.28098,-0.0735 -0.51087,-0.27083 -0.51087,-0.43856 0,-0.16773 0.13746,-0.22002 0.30547,-0.11618 0.19519,0.12064 0.23338,0.0722 0.10579,-0.13428 -0.10981,-0.17769 -0.25848,-0.26425 -0.33038,-0.19235 -0.0719,0.0719 -0.49664,-0.28604 -0.94387,-0.79542 -0.49716,-0.56623 -0.98547,-0.88107 -1.25659,-0.81017 -0.25635,0.067 -0.59045,-0.12018 -0.79193,-0.44375 -0.32747,-0.52594 -0.31799,-0.53657 0.15703,-0.17614 0.99646,0.75607 -1.91206,-2.19338 -3.66846,-3.72008 -0.9860002,-0.85706 -1.7080502,-1.55829 -1.6045502,-1.55829 0.1035,0 0.43971,0.20836 0.74715,0.46302 0.3074302,0.25467 0.2354002,0.14585 -0.16007,-0.2418 -0.39547,-0.38765 -0.63933,-0.7937 -0.54191,-0.90232 0.0974,-0.10861 0.0275,-0.11132 -0.15548,-0.006 -0.19409,0.11173 -0.39846,0.0198 -0.49075,-0.22065 -0.087,-0.22667 -0.2945,-0.33042 -0.46115,-0.23056 -0.16665,0.0999 -0.13402,-0.0266 0.0725,-0.28103 0.20654,-0.25443 0.26607,-0.44178 0.13229,-0.41634 -0.65809,0.12517 -0.96148,-0.0261 -0.6963,-0.34713 0.32027,-0.38776 -0.78006,-1.95441 -1.1933,-1.69901 -0.13739,0.0849 -0.2498,-0.0137 -0.2498,-0.21922 0,-0.20548 0.0794,-0.32454 0.17639,-0.26458 0.097,0.06 0.17639,-0.0591 0.17639,-0.26458 0,-0.20548 -0.0774,-0.32578 -0.17194,-0.26734 -0.0946,0.0584 -0.37483,-0.2372 -0.62281,-0.65699 -0.24798,-0.4198 -0.67865,-0.83556 -0.95704,-0.92392 -0.33585,-0.10659 -0.4711,-0.34274 -0.40194,-0.70183 0.0785,-0.40781 -2.2e-4,-0.5011 -0.31956,-0.37856 -0.34831,0.13366 -0.36594,0.0929 -0.099,-0.22872 0.40977,-0.49374 0.10071,-1.03333 -0.46707,-0.81545 -0.23551,0.0904 -0.34728,0.0834 -0.24837,-0.0155 0.0989,-0.0989 -0.004,-0.53501 -0.22836,-0.96914 -0.2245,-0.43413 -0.28064,-0.71051 -0.12477,-0.61417 0.17419,0.10765 0.22291,0.0175 0.12642,-0.23395 -0.0863,-0.225 -0.24616,-0.35398 -0.35515,-0.28662 -0.29227,0.18063 -0.81567,-1.11202 -0.63787,-1.57536 0.0877,-0.22848 -0.0273,-0.46683 -0.27017,-0.56002 -0.23254,-0.0892 -0.35693,-0.26883 -0.27642,-0.39911 0.0805,-0.13027 -0.0631,-0.23686 -0.31902,-0.23686 -0.36198,0 -0.39485,-0.0705 -0.14791,-0.3175 0.40543,-0.40543 0.41423,-0.83184 0.012,-0.58327 -0.19437,0.12013 -0.23342,0.0722 -0.10738,-0.13172 0.10894,-0.17627 0.12243,-0.62189 0.03,-0.99027 -0.14661,-0.58411 -0.22396,-0.62448 -0.60487,-0.31569 -0.2626,0.21289 -0.36203,0.22949 -0.24936,0.0416 0.10306,-0.17184 0.0827,-0.37713 -0.0452,-0.45619 -0.12792,-0.0791 -0.19989,-0.55577 -0.15994,-1.05936 0.0557,-0.70142 -0.0154,-0.88181 -0.30389,-0.77112 -0.262,0.10054 -0.32678,0.0148 -0.21294,-0.28184 0.0958,-0.24959 0.0287,-0.42633 -0.16169,-0.42633 -0.25002,0 -0.2536,-0.0864 -0.0155,-0.37332 0.19696,-0.23733 0.21469,-0.43212 0.0487,-0.53473 -0.14364,-0.0888 -0.21712,-0.39017 -0.16327,-0.66975 0.0733,-0.38043 -0.014,-0.4691 -0.34699,-0.35237 -0.36243,0.12705 -0.38359,0.0899 -0.11416,-0.20047 0.47462,-0.51153 0.41604,-1.06049 -0.0924,-0.86541 -0.37132,0.14249 -0.37941,0.0919 -0.0661,-0.41325 0.28906,-0.46614 0.29234,-0.61582 0.0172,-0.78712 -0.18683,-0.11633 -0.26928,-0.39499 -0.18323,-0.61924 0.092,-0.23966 -0.0181,-0.47471 -0.26703,-0.57023 -0.32738,-0.12563 -0.36195,-0.27749 -0.15234,-0.66915 0.20557,-0.38412 0.17741,-0.54262 -0.11643,-0.65537 -0.21316,-0.0818 -0.33998,-0.30206 -0.28183,-0.48947 0.38856,-1.25221 0.42245,-1.85562 0.0972,-1.73081 -0.24566,0.0943 -0.35994,-0.19907 -0.39929,-1.02487 -0.15872,-3.33149 -0.0237,-6.44677 0.27158,-6.2643 0.1442,0.0891 0.18746,0.0411 0.0961,-0.10664 -0.0913,-0.14777 -0.22979,-0.90897 -0.30769,-1.69156 -0.0779,-0.78259 -0.21391,-1.6506 -0.30224,-1.9289 -0.12087,-0.38084 -0.0597,-0.46728 0.24735,-0.34946 0.33509,0.12859 0.3892,-0.0319 0.30299,-0.89855 -0.0577,-0.58031 -0.17055,-1.1612 -0.25069,-1.29089 -0.0801,-0.12968 0.0489,-0.34471 0.28678,-0.47783 0.34729,-0.19435 0.37446,-0.35053 0.13786,-0.79262 -0.38791,-0.72482 -0.37352,-0.98019 0.0361,-0.64025 0.25172,0.2089 0.33073,0.0902 0.33073,-0.49677 0,-0.42419 -0.0856,-0.77125 -0.19013,-0.77125 -0.10457,0 -0.12186,-0.17791 -0.0384,-0.39536 0.0834,-0.21744 0.28806,-0.31904 0.45471,-0.22577 0.18307,0.10246 0.1721,0.0285 -0.0277,-0.18672 -0.4044,-0.43569 -0.42669,-0.77965 -0.0505,-0.77965 0.15411,0 0.19617,0.14882 0.0935,0.33073 -0.14155,0.2507 -0.10739,0.25758 0.14118,0.0284 0.24486,-0.22575 0.25451,-0.43948 0.0381,-0.84384 -0.19122,-0.3573 -0.19956,-0.59729 -0.0245,-0.70548 0.14592,-0.0902 0.2653,-0.018 0.2653,0.16034 0,0.17836 0.0629,0.26143 0.1397,0.1846 0.0768,-0.0768 0.0202,-0.45387 -0.12575,-0.83785 -0.2182,-0.57392 -0.19022,-0.69815 0.15729,-0.69815 0.34575,0 0.36275,-0.0723 0.0933,-0.39688 -0.26835,-0.32334 -0.25443,-0.39687 0.0751,-0.39687 0.28402,0 0.36006,-0.16994 0.2553,-0.57054 -0.11114,-0.425 -0.0606,-0.51581 0.19794,-0.356 0.23077,0.14263 0.28344,0.11147 0.1571,-0.093 -0.10452,-0.16912 -0.004,-0.49344 0.22318,-0.72071 0.30562,-0.30562 0.34428,-0.54204 0.14845,-0.90795 -0.15814,-0.29548 -0.16703,-0.55515 -0.0221,-0.64474 0.13349,-0.0825 0.29055,-0.006 0.34904,0.16901 0.066,0.19784 0.17386,0.14301 0.28415,-0.14439 0.099,-0.25809 0.07,-0.39678 -0.0654,-0.31303 -0.1338,0.0827 -0.31806,0.0293 -0.40946,-0.11855 -0.0914,-0.1479 0.0124,-0.2689 0.23068,-0.2689 0.21828,0 0.48183,-0.13746 0.58566,-0.30547 0.11268,-0.18231 0.073,-0.23391 -0.0984,-0.12797 -0.15795,0.0976 -0.35598,0.0662 -0.44006,-0.0699 -0.20537,-0.3323 1.31023,-0.67024 2.67472,-0.59639 0.60676,0.0328 1.17652,-0.0589 1.26614,-0.20393 0.10628,-0.17197 0.39567,-0.17516 0.83225,-0.009 0.93828,0.35673 2.23682,0.32248 2.15622,-0.0569 -0.0383,-0.18042 0.29548,-0.3343 0.79375,-0.36592 0.47295,-0.03 0.8599,0.0506 0.8599,0.17906 0,0.12849 0.50602,0.21578 1.12448,0.19398 0.7978502,-0.0281 0.9118302,-0.0718 0.3923902,-0.1503 -0.4026502,-0.0609 -0.6663302,-0.21707 -0.5859502,-0.34712 0.0845,-0.13667 0.4403602,-0.12461 0.8432402,0.0286 0.78858,0.29982 2.9229,0.39755 3.17506,0.14539 0.0913,-0.0913 -0.30027,-0.1736 -0.87023,-0.18283 -0.89097,-0.0144 -0.95243,-0.0505 -0.43833,-0.25703 0.36661,-0.14731 0.8595,-0.14082 1.27399,0.0168 0.85872,0.32648 1.77795,0.33273 1.57894,0.0107 -0.25421,-0.41132 0.23045,-0.52671 1.24821,-0.29716 0.63038,0.14217 0.9981,0.12064 1.05899,-0.062 0.1055,-0.31651 3.35409,-0.42847 3.5433,-0.12212 0.0674,0.10914 0.32389,0.19661 0.56996,0.19439 0.378868,-0.003 0.387748,-0.0418 0.058,-0.25035 -0.33901,-0.2144 -0.33575,-0.26692 0.0252,-0.40543 0.228058,-0.0875 0.760508,-0.0826 1.183208,0.0109 1.87904,0.41579 2.22375,0.43658 2.22375,0.13414 0,-0.17063 -0.11907,-0.23665 -0.26459,-0.14671 -0.14552,0.0899 -0.26458,0.0374 -0.26458,-0.11668 0,-0.16973 0.75624,-0.28753 1.91823,-0.29879 2.02959,-0.0197 3.83591,-0.45455 2.05052,-0.49367 -0.50932,-0.0112 -2.3889,-0.0493 -4.17684,-0.0847 -1.96831,-0.039 -3.325278,-0.17741 -3.439588,-0.35076 -0.18972,-0.28774 -1.68177,-0.27973 -8.34232,0.0448 -3.2563202,0.15865 -4.3400102,0.0296 -3.6130002,-0.43012 0.30782,-0.19467 0.26466,-0.24715 -0.20585,-0.25035 -0.32743,-0.002 -0.56555,0.0852 -0.52917,0.19438 0.0894,0.26835 -0.17346,0.33555 -1.19063,0.30436 -0.81472,-0.025 -0.82514,-0.0375 -0.19843,-0.23821 l 0.66146,-0.21184 -0.72761,-0.0264 c -0.40018,-0.0145 -0.7276,0.0927 -0.7276,0.23821 0,0.15542 -0.84597,0.25596 -2.05052,0.24369 -1.12779,-0.0115 -1.90095,-0.0812 -1.71815,-0.15489 0.18281,-0.0737 0.26508,-0.24289 0.18283,-0.37598 -0.0823,-0.1331 -0.0164,-0.24199 0.14625,-0.24199 0.1627,0 0.22223,-0.11906 0.1323,-0.26458 -0.0899,-0.14552 -0.0405,-0.26459 0.10988,-0.26459 0.15037,0 0.46489,-0.37029 0.69893,-0.82287 0.23403,-0.45258 0.31647,-0.75547 0.18318,-0.67309 -0.13329,0.0824 -0.24234,-0.0183 -0.24234,-0.22383 0,-0.20548 0.0694,-0.3318 0.15434,-0.28071 0.0849,0.0511 0.30786,-0.0732 0.4955,-0.27623 0.18764,-0.203 0.25044,-0.3691 0.13957,-0.3691 -0.11088,0 0.071,-0.19095 0.40421,-0.42433 0.34831,-0.24396 0.54332,-0.58719 0.45878,-0.80749 -0.0809,-0.21074 -0.0532,-0.32515 0.0616,-0.25424 0.11473,0.0709 0.36028,-0.11397 0.54567,-0.41082 0.27671,-0.44309 0.27435,-0.50758 -0.0132,-0.36014 -0.19264,0.0988 -0.11915,-0.008 0.16333,-0.2369 0.28247,-0.22907 0.44506,-0.4165 0.36129,-0.4165 -0.0838,0 0.30492,-0.50018 0.86373,-1.11151 0.83202,-0.91021 0.95826,-1.18296 0.69704,-1.506 -0.17544,-0.21696 -0.19992,-0.33388 -0.0544,-0.2598 0.14552,0.0741 0.56224,-0.15998 0.92604,-0.52012 0.3638,-0.36014 0.51263,-0.56946 0.33073,-0.46515 -0.63375,0.36341 -0.30886,-0.24223 0.40519,-0.7553 0.7135702,-0.51274 0.7164202,-0.51274 0.35808,0 -0.19867,0.28426 0.0606,0.0451 0.5762402,-0.53146 0.5156,-0.57657 0.89074,-1.1239 0.83364,-1.21628 -0.11241,-0.18189 1.35644,-1.680043 1.50629,-1.536343 0.19235,0.18446 1.21268,-0.72821 1.51869,-1.35844 0.28416,-0.58525 0.27802,-0.60811 -0.0533,-0.19844 -0.20597,0.25466 -0.46912,0.46302 -0.58477,0.46302 -0.11565,0 0.003,-0.23532 0.26297,-0.52293 0.26028,-0.28761 0.56816,-0.46426 0.68418,-0.39256 0.11602,0.0717 0.28693,0.007 0.3798,-0.14284 0.0929,-0.15027 0.27146,-0.2098 0.39687,-0.13229 0.12541,0.0775 0.31418,0.002 0.41948,-0.16886 0.12367,-0.20012 0.0764,-0.23867 -0.13355,-0.10892 -0.24317,0.15029 -0.2391,0.0633 0.0162,-0.34544 0.18764,-0.30047 0.40793,-0.43827 0.48953,-0.30624 0.1566,0.25337 0.86426,-0.0639 0.80845,-0.3625 -0.0179,-0.096 0.1,-0.3803 0.26196,-0.63188 0.27613,-0.42877 0.28541,-0.42804 0.14826,0.0117 -0.12247,0.39268 -0.0634,0.42479 0.36216,0.19701 0.27966,-0.14967 0.5975,-0.42031 0.7063,-0.60143 0.1328,-0.22109 0.0507,-0.20997 -0.24985,0.0338 -0.24622,0.19972 -0.44767,0.29712 -0.44767,0.21645 0,-0.0807 0.37869,-0.41632 0.84153,-0.74589 0.46284,-0.32957 0.74803,-0.44795 0.63377,-0.26306 -0.1675,0.27101 -0.10317,0.27084 0.33199,-9.3e-4 0.29685,-0.18539 0.48172,-0.43094 0.41082,-0.54566 -0.0709,-0.11473 0.0368,-0.14501 0.2393,-0.0673 0.20253,0.0777 0.53613,-0.0656 0.74135,-0.3184 0.32479,-0.40017 0.32172,-0.4305 -0.0238,-0.23421 -0.2328,0.13228 -0.30711,0.12732 -0.17976,-0.012 0.11941,-0.13061 0.41707,-0.239 0.66146,-0.24086 0.24439,-0.002 0.43112,-0.19189 0.41495,-0.42229 -0.0162,-0.230412 0.127418,-0.418928 0.319088,-0.418928 0.19167,0 0.28536,0.128985 0.20821,0.286628 -0.0771,0.15765 0.0472,0.0555 0.27622,-0.226954 0.22908,-0.282475 0.4165,-0.603061 0.4165,-0.712413 0,-0.109352 0.25728,-0.149274 0.57173,-0.08872 0.57145,0.110051 2.6673,-0.880996 2.48561,-1.17535 -0.0529,-0.08567 0.20205,-0.173679 0.56651,-0.195575 0.36445,-0.0219 0.79951,-0.177779 0.96679,-0.346405 0.23009,-0.231931 0.1774,-0.258295 -0.21635,-0.108262 -0.46466,0.177055 -0.47885,0.1532 -0.13229,-0.222374 0.27816,-0.301449 0.48377,-0.342538 0.72533,-0.144952 0.18542,0.151664 0.41362,0.199255 0.50712,0.105757 0.0935,-0.0935 0.0311,-0.169995 -0.13869,-0.169995 -0.16977,0 -0.30868,-0.102689 -0.30868,-0.228199 0,-0.12551 0.29403,-0.195924 0.6534,-0.156475 0.35937,0.03945 0.62726,-0.04993 0.59531,-0.198622 -0.0319,-0.148692 0.23957,-0.319846 0.60338,-0.380344 0.3638,-0.0605 0.69576,-0.209469 0.73769,-0.331047 0.0419,-0.121578 0.4349,-0.17929 0.87328,-0.128249 0.54786,0.06379 0.73857,-0.0018 0.61,-0.20985 -0.12608,-0.204002 -0.008,-0.255708 0.36369,-0.15863 0.42574,0.111334 0.51637,0.04573 0.39931,-0.289051 -0.12319,-0.352288 -0.085,-0.371379 0.205,-0.102345 0.42548,0.394788 0.87925,0.441144 0.64748,0.06615 -0.0899,-0.145521 0.0221,-0.264583 0.24897,-0.264583 0.22687,0 0.41249,-0.142875 0.41249,-0.3175 0,-0.246945 0.07056,-0.246945 0.317503,0 0.431874,0.431874 1.021358,0.402321 0.850608,-0.04265 -0.10467,-0.272764 0.122026,-0.345461 0.934346,-0.299627 0.5899,0.03328 1.072545,-0.04278 1.072545,-0.169023 0,-0.126246 0.12609,-0.229539 0.280199,-0.229539 0.154109,0 0.213476,0.107959 0.131926,0.239909 -0.08155,0.13195 0.08178,0.179749 0.362952,0.106221 0.281173,-0.07353 0.479445,-0.270785 0.440604,-0.438346 -0.03884,-0.167562 -0.02068,-0.215362 0.04036,-0.106221 0.06104,0.10914 0.405737,0.198437 0.766001,0.198437 0.360263,0 0.58844,-0.107736 0.507058,-0.239414 -0.08421,-0.136252 0.336591,-0.179976 0.976573,-0.101471 1.062917,0.130384 1.095542,0.114974 0.595372,-0.281226 -0.498737,-0.395064 -0.476015,-0.404444 0.395128,-0.163112 0.964452,0.267181 2.002088,0.327484 1.390809,0.08083 -0.747025,-0.301431 -0.25972,-0.546304 0.661459,-0.332386 1.350076,0.313517 1.39654,0.305798 1.202532,-0.199778 -0.136009,-0.354436 -0.06835,-0.401406 0.339034,-0.235353 0.871369,0.35518 2.854787,0.519794 2.670517,0.22164 -0.09589,-0.155149 0.22043,-0.332515 0.744757,-0.417601 1.183197,-0.192007 3.868455,0.08576 3.685822,0.381268 -0.207065,0.335038 1.683169,0.2785 2.333994,-0.06981 0.454185,-0.243072 0.621192,-0.210257 0.904958,0.177816 0.297625,0.407027 0.482537,0.434604 1.277716,0.190557 0.781189,-0.239754 0.929731,-0.220961 0.929731,0.117626 0,0.397427 0.323198,0.384883 1.389063,-0.05391 0.331967,-0.136665 0.463021,-0.06585 0.463021,0.25018 0,0.242439 0.119062,0.367213 0.264583,0.277276 0.145521,-0.08994 0.264583,-0.03743 0.264583,0.116677 0,0.391486 1.669552,0.351364 2.102691,-0.05053 0.290092,-0.269166 0.327971,-0.249383 0.203495,0.106277 -0.117742,0.33642 0.06489,0.477871 0.79345,0.61455 0.616689,0.115692 1.013588,0.06883 1.139265,-0.134524 0.147594,-0.238811 0.237971,-0.239093 0.384997,-0.0012 0.10567,0.170977 0.358678,0.246957 0.56224,0.168843 0.220586,-0.08465 0.370112,0.02639 0.370112,0.274853 0,0.268057 0.146586,0.360628 0.410617,0.25931 0.235459,-0.09035 0.341662,-0.046 0.248968,0.103984 -0.08891,0.143854 -0.04259,0.261553 0.102935,0.261553 0.145521,0 0.339368,-0.121005 0.430772,-0.268899 0.0914,-0.147895 0.278967,-0.199199 0.416806,-0.11401 0.137839,0.08519 0.187201,0.257499 0.109694,0.382909 -0.07751,0.12541 -0.01697,0.304627 0.134531,0.398259 0.1515,0.09363 0.242739,0.07209 0.202753,-0.04786 -0.03999,-0.119957 0.04636,-0.218103 0.191882,-0.218103 0.145521,0 0.2281,0.10945 0.183509,0.243224 -0.04459,0.133773 0.08555,0.104938 0.289201,-0.06408 0.295172,-0.244971 0.431216,-0.173555 0.670715,0.352088 0.221792,0.486779 0.492392,0.651356 1.033715,0.628699 0.447521,-0.01873 0.552839,-0.07785 0.270256,-0.151693 -0.254662,-0.06655 -0.463021,-0.231332 -0.463021,-0.366182 0,-0.431754 0.486595,-0.263702 1.146127,0.39583 0.497764,0.497764 0.716099,0.571673 0.977009,0.330729 0.263398,-0.243241 0.302608,-0.214971 0.18147,0.13084 -0.16074,0.458861 0.455204,0.87381 0.89427,0.602453 0.132389,-0.08182 0.240707,-0.02687 0.240707,0.122124 0,0.433296 1.188518,0.946531 2.463011,1.063596 0.117729,0.01081 0.140468,0.138724 0.05053,0.284244 -0.155107,0.250968 -0.0413,0.308904 0.727604,0.370417 0.181901,0.01455 0.486308,0.234818 0.676461,0.489479 0.190153,0.254662 0.4808,0.463021 0.645882,0.463021 0.165083,0 0.08305,-0.15875 -0.182302,-0.352778 -0.40535,-0.296399 -0.415251,-0.352778 -0.06195,-0.352778 0.484521,0 0.791676,0.609804 0.533999,1.060163 -0.09656,0.16877 -0.07814,0.21859 0.04094,0.11071 0.119082,-0.10787 0.376296,-0.0635 0.571586,0.0986 0.262966,0.21824 0.355073,0.21359 0.355073,-0.0179 0,-0.17193 0.126984,-0.23412 0.282187,-0.1382 0.155202,0.0959 0.215366,0.24122 0.133698,0.32289 -0.246941,0.24694 1.687145,1.42568 2.010928,1.22557 0.173449,-0.10719 0.228433,-0.0688 0.129881,0.0906 -0.09399,0.15209 0.155499,0.48356 0.554432,0.73659 0.398933,0.25304 1.038283,0.75072 1.420778,1.10597 0.382495,0.35524 0.858745,0.66986 1.058333,0.69916 0.199589,0.0293 0.362888,0.12916 0.362888,0.22193 0,0.0928 0.328556,0.42711 0.730125,0.74298 0.401569,0.31587 0.651063,0.70224 0.554432,0.85859 -0.09736,0.15753 -0.05286,0.20837 0.09979,0.11402 0.151516,-0.0936 0.416742,-5e-5 0.589391,0.20798 0.172649,0.20803 0.492624,0.30965 0.711055,0.22583 0.246202,-0.0945 0.837191,0.27947 1.554929,0.98388 0.945257,0.927693 1.109933,1.225673 0.897115,1.623333 -0.245092,0.45795 -0.07497,0.61141 0.586344,0.52889 0.09181,-0.0115 0.38947,0.24028 0.661459,0.55942 0.484767,0.5688 0.484534,0.57251 -0.01181,0.18793 -0.477236,-0.36976 -0.488107,-0.3581 -0.189129,0.203 0.174466,0.32742 0.477036,0.59531 0.672379,0.59531 0.195343,0 0.518576,0.20145 0.718296,0.44767 0.313293,0.38623 0.308662,0.41501 -0.03375,0.20971 -0.319925,-0.19181 -0.311226,-0.11188 0.04487,0.41224 0.242959,0.35759 0.57038,0.62041 0.727604,0.58403 0.157223,-0.0364 0.256095,0.0678 0.219715,0.23151 -0.03638,0.16371 0.09925,0.35775 0.301412,0.4312 0.246536,0.0896 0.298413,0.0217 0.157557,-0.20624 -0.138725,-0.22447 -0.10486,-0.27481 0.09978,-0.14834 0.170379,0.1053 0.245802,0.29497 0.167607,0.42149 -0.0782,0.12653 0.06869,0.36541 0.326413,0.53087 0.448165,0.28771 0.448141,0.29444 -5.57e-4,0.1545 -0.742493,-0.23156 -0.06814,0.8225 0.904701,1.41412 0.439263,0.26714 0.662976,0.53093 0.497139,0.58621 -0.167916,0.056 -0.223909,0.30276 -0.126365,0.55696 0.09634,0.25105 0.281745,0.39058 0.412017,0.31006 0.130273,-0.0805 0.236859,0.0364 0.236859,0.25971 0,0.62966 0.967482,2.07011 1.641779,2.44437 0.333949,0.18536 0.458351,0.34123 0.27645,0.34639 -0.181901,0.005 -0.330729,0.13547 -0.330729,0.28958 0,0.1541 0.119063,0.20661 0.264584,0.11667 0.237429,-0.14674 0.395335,0.42078 0.285095,1.02465 -0.02318,0.12699 0.158152,0.15403 0.402967,0.0601 0.39022,-0.14974 0.39971,-0.115 0.07696,0.28166 -0.326992,0.40188 -0.312202,0.43146 0.132292,0.26458 0.416218,-0.15626 0.446528,-0.12292 0.180078,0.19814 -0.344097,0.41461 0.0237,1.47817 0.51111,1.47817 0.13583,0 0.17094,0.19813 0.078,0.44028 -0.11283,0.29404 -0.0671,0.37736 0.13756,0.25084 0.2069,-0.12786 0.24958,-0.041 0.13132,0.26712 -0.12938,0.33716 -0.0696,0.41602 0.22868,0.30157 0.30275,-0.11618 0.38633,0.005 0.33382,0.48323 -0.0483,0.44042 0.0662,0.64469 0.36966,0.6591 0.2749,0.0131 0.31575,0.0709 0.109,0.15434 -0.18191,0.0734 -0.33073,0.30915 -0.33073,0.5239 0,0.21474 0.0952,0.33158 0.21162,0.25964 0.31451,-0.19437 0.82897,0.75849 0.6051,1.12073 -0.27391,0.4432 -7.357587,0.53289 -7.683994,0.0973 -0.0793,-0.10583 -1.037156,-0.12458 -2.128562,-0.0417 -1.27623,0.097 -1.577521,0.16778 -0.844281,0.19844 0.746532,0.0312 1.078545,0.14725 0.961794,0.33616 -0.177951,0.28793 -2.236099,0.16965 -2.767985,-0.15907 -0.557583,-0.34461 -2.359936,-0.1839 -2.79286,0.24902 -0.242274,0.24228 -0.512172,0.36883 -0.599774,0.28122 -0.0876,-0.0876 0.01587,-0.27004 0.229935,-0.40542 0.308389,-0.19503 0.267315,-0.24699 -0.197796,-0.2502 -0.438571,-0.003 -0.544457,0.10684 -0.418737,0.43446 0.150087,0.39112 -9.16e-4,0.41651 -1.397366,0.23492 -0.861101,-0.11198 -1.803763,-0.23252 -2.094805,-0.26786 -0.291041,-0.0353 -0.823887,0.0448 -1.184102,0.17808 -1.107304,0.40973 -2.585566,0.53222 -2.77251,0.22973 -0.09661,-0.15631 -0.734179,-0.27482 -1.416815,-0.26332 -0.682635,0.0115 -1.092327,0.0809 -0.910426,0.15433 0.79487,0.32074 0.210968,0.63509 -1.190625,0.64099 -0.836745,0.004 -1.878542,0.0214 -2.315104,0.0397 -0.436563,0.0183 -1.076551,-0.0605 -1.422196,-0.17507 -0.435054,-0.14427 -0.572735,-0.11826 -0.447406,0.0845 0.108356,0.17533 -0.03768,0.3062 -0.363742,0.326 -0.29963,0.0182 -0.663844,0.0628 -0.809365,0.0992 -0.14552,0.0364 -0.688328,0.081 -1.206239,0.0992 -0.517912,0.0182 -0.882062,0.1295 -0.809224,0.24736 0.07284,0.11785 1.53838,0.19538 3.256761,0.17229 2.02063,-0.0272 3.192996,0.0607 3.318713,0.24874 0.134303,0.20087 0.195638,0.1885 0.198438,-0.04 0.0046,-0.37623 3.60828,-0.45829 6.089467,-0.13868 1.418173,0.1827 1.431641,0.19219 0.529167,0.37293 -1.036624,0.20763 8.045015,0.0901 14.955286,-0.19354 5.245243,-0.2153 7.002293,-0.0426 7.198473,0.70763 0.0731,0.27964 0.26195,0.50843 0.4196,0.50843 0.18865,0 0.17811,0.10853 -0.0309,0.3175 -0.45247,0.45247 -0.39659,1.01916 0.0824,0.83536 0.2857,-0.10963 0.35333,-0.0322 0.23686,0.27137 -0.0897,0.23365 -0.29937,0.3569 -0.46602,0.27388 -0.16666,-0.083 -0.0326,0.0877 0.29799,0.37927 0.35414,0.31242 0.48999,0.5988 0.33073,0.69723 -0.14865,0.0919 -0.26845,0.48743 -0.26622,0.87903 0.003,0.54238 0.0627,0.61927 0.2502,0.32277 0.36985,-0.58482 0.62743,-0.13718 0.28704,0.49885 -0.24364,0.45525 -0.21928,0.55182 0.13917,0.55182 0.30565,0 0.38137,0.1373 0.25536,0.46302 -0.23089,0.59682 -0.46204,2.15629 -0.25491,1.7198 0.2699,-0.5688 0.50972,-0.36284 0.50972,0.43775 0,0.42267 -0.0893,0.7133 -0.19844,0.64584 -0.10914,-0.0674 -0.18904,0.3904 -0.17755,1.01746 0.0115,0.62705 0.0809,0.99126 0.15434,0.80936 0.0734,-0.1819 0.25918,-0.33073 0.41284,-0.33073 0.18534,0 0.21394,0.46759 0.085,1.38906 -0.10693,0.76399 -0.21361,1.62719 -0.23705,1.91823 -0.0234,0.29105 -0.13188,0.66783 -0.24096,0.8373 -0.10908,0.16947 -0.0757,0.349 0.0741,0.39896 0.14986,0.0499 0.34802,0.55633 0.44034,1.12528 0.14923,0.91959 0.11522,1.01426 -0.3063,0.85251 -0.41167,-0.15798 -0.45502,-0.0679 -0.32891,0.68325 0.0799,0.47586 0.22766,1.07356 0.32837,1.32822 0.103,0.26045 0.0635,0.46303 -0.0904,0.46303 -0.15042,0 -0.32794,-0.20836 -0.39449,-0.46303 -0.0763,-0.29199 -0.13233,-0.20062 -0.15169,0.24736 -0.0169,0.39071 0.0838,1.01158 0.22378,1.3797 0.16803,0.44195 0.16272,0.72602 -0.0156,0.83624 -0.14855,0.0918 -0.2346,0.48298 -0.19122,0.86927 0.0483,0.43043 -0.0418,0.67882 -0.23273,0.6416 -0.18785,-0.0366 -0.26744,0.16853 -0.20042,0.51656 0.0611,0.31752 -0.0278,0.6632 -0.19766,0.76818 -0.23141,0.14302 -0.22206,0.29542 0.0373,0.60791 0.26443,0.31862 0.26935,0.41704 0.0208,0.41704 -0.1789,0 -0.26232,0.16408 -0.18536,0.36463 0.077,0.20055 0.027,0.47757 -0.11104,0.6156 -0.13803,0.13802 -0.27755,0.62855 -0.31005,1.09005 -0.0543,0.77078 -0.45597,1.23897 -0.45597,0.53145 0,-0.16977 -0.0692,-0.2395 -0.15373,-0.15495 -0.0846,0.0846 -0.0208,0.40205 0.1416,0.70556 0.17063,0.31882 0.18899,0.55182 0.0435,0.55182 -0.13851,0 -0.32201,-0.14882 -0.40776,-0.33072 -0.0858,-0.18191 -0.0909,0.007 -0.0114,0.41904 0.0867,0.45003 0.0421,0.68649 -0.11166,0.59147 -0.34358,-0.21234 -0.61708,0.71262 -0.38757,1.31072 0.12609,0.32858 0.0867,0.41787 -0.12629,0.28624 -0.36616,-0.2263 -0.41564,0.15327 -0.0671,0.51461 0.14832,0.15376 0.0774,0.40209 -0.18266,0.63956 -0.3802,0.34719 -0.40416,0.33321 -0.22678,-0.13229 0.15043,-0.3948 0.12402,-0.44679 -0.10935,-0.21527 -0.21243,0.21074 -0.22622,0.45077 -0.0446,0.77539 0.18805,0.33603 0.1598,0.57348 -0.099,0.83231 -0.19918,0.19918 -0.45656,0.53086 -0.57196,0.73707 -0.2789,0.49835 -2.568292,0.75527 -3.948808,0.44314 -0.75296,-0.17025 -1.194843,-0.15906 -1.389062,0.0352 -0.203381,0.20338 -0.284827,0.19404 -0.284827,-0.0327 0,-0.17741 -0.321028,-0.30395 -0.727604,-0.2868 -0.453725,0.0191 -0.552099,0.0765 -0.261344,0.15231 0.256443,0.0669 0.398244,0.23168 0.315114,0.36619 -0.19247,0.31142 -1.629219,0.32055 -1.820183,0.0116 -0.198695,-0.32149 -1.45765,-0.53786 -1.618188,-0.27811 -0.07195,0.11642 -0.557277,0.14247 -1.078498,0.0579 -0.63099,-0.10239 -1.018106,-0.0398 -1.158443,0.18725 -0.255284,0.41306 -2.899125,0.49227 -6.013605,0.18017 -1.196961,-0.11994 -2.328055,-0.11994 -2.513542,0 -0.185486,0.11995 -0.753967,0.34403 -1.26329,0.49795 l -0.926041,0.27987 1.150019,0.19036 c 0.910629,0.15074 1.115904,0.27927 0.986131,0.61746 -0.122111,0.31821 -0.07804,0.35946 0.172897,0.16179 0.465205,-0.36645 2.280164,-0.61911 2.451848,-0.34131 0.07721,0.12493 0.644939,0.18954 1.261619,0.14358 0.616679,-0.046 1.270709,0.0377 1.453398,0.18589 0.186903,0.15162 0.79436,0.19555 1.389063,0.10046 1.167304,-0.18666 1.382199,-0.0162 0.461587,0.36611 -0.481173,0.19983 -0.367033,0.23887 0.595312,0.2036 0.654844,-0.024 1.488281,0.0473 1.852083,0.15845 0.434684,0.1328 0.539452,0.11743 0.305589,-0.0448 -0.577778,-0.40089 0.817577,-0.6236 1.787871,-0.28535 0.458298,0.15976 1.079207,0.22616 1.379799,0.14756 0.662945,-0.17337 1.341453,0.0515 1.139815,0.37777 -0.206526,0.33417 1.571587,0.29637 1.908525,-0.0406 0.46134,-0.46134 2.806711,0.0501 2.891913,0.63059 0.04844,0.33006 -0.05208,0.43444 -0.319535,0.33181 -0.229851,-0.0882 -0.320335,-0.0367 -0.220179,0.12538 0.09352,0.15131 -0.146017,0.56802 -0.5323,0.92601 -0.492861,0.45677 -0.652525,0.80783 -0.535336,1.17706 0.09921,0.31259 0.04602,0.52616 -0.131031,0.52616 -0.163915,0 -0.229741,0.11049 -0.146279,0.24554 0.08346,0.13504 -0.08983,0.32221 -0.385102,0.41592 -0.295268,0.0937 -0.468564,0.28088 -0.385102,0.41593 0.08346,0.13504 0.03377,0.24553 -0.110433,0.24553 -0.1442,0 -0.53183,0.37869 -0.8614,0.84152 -0.32957,0.46284 -0.426974,0.73764 -0.216454,0.61067 0.327951,-0.19779 0.330763,-0.16674 0.01964,0.21681 -0.199719,0.24622 -0.271409,0.44767 -0.15931,0.44767 0.112099,0 -0.188545,0.26789 -0.668097,0.59531 -0.479553,0.32742 -1.055363,0.89297 -1.279578,1.25677 -0.296821,0.48161 -0.307789,0.57153 -0.04034,0.33073 0.20203,-0.1819 0.478633,-0.33073 0.614674,-0.33073 0.136042,0 -0.09382,0.26789 -0.51081,0.59531 -0.416987,0.32742 -0.849763,0.56555 -0.961723,0.52917 -0.111961,-0.0364 -0.203565,0.11947 -0.203565,0.34634 0,0.24442 0.124461,0.33557 0.305464,0.22371 0.195335,-0.12073 0.233381,-0.0722 0.105529,0.13471 -0.109964,0.17793 -0.365057,0.26014 -0.566873,0.18269 -0.201816,-0.0774 -0.338601,-0.0449 -0.303967,0.0723 0.03463,0.11719 -0.693714,0.93742 -1.618552,1.82272 -0.924838,0.8853 -1.610759,1.72415 -1.524267,1.86409 0.08649,0.13995 -0.04979,0.41677 -0.302851,0.61516 -0.410984,0.32219 -0.423426,0.31379 -0.116531,-0.0788 0.188968,-0.24171 0.240579,-0.50312 0.114693,-0.58092 -0.125887,-0.0778 -0.437296,0.21135 -0.692021,0.64257 -0.257534,0.43596 -0.590879,0.70507 -0.750886,0.60618 -0.177273,-0.10956 -0.211311,-0.0542 -0.08866,0.1443 0.286435,0.46346 -0.636056,1.42059 -1.043372,1.08254 -0.22127,-0.18363 -0.468009,-0.0852 -0.819734,0.32711 -0.410972,0.48173 -0.418331,0.52411 -0.04016,0.23125 0.725346,-0.56171 0.542143,-0.12473 -0.264583,0.63109 -0.400182,0.37493 -0.920189,0.63315 -1.155571,0.57381 -0.268029,-0.0676 -0.416347,0.0501 -0.396875,0.31482 0.0171,0.23248 -0.122079,0.42557 -0.309288,0.42908 -0.187209,0.004 -0.453276,0.18498 -0.591261,0.40326 -0.137985,0.21828 -0.256325,0.27781 -0.262978,0.13229 -0.0067,-0.14552 -0.129427,-0.0634 -0.272829,0.18244 -0.144533,0.2478 -0.487889,0.40327 -0.770443,0.34886 -0.376556,-0.0725 -0.467393,0.0121 -0.347718,0.32399 0.107527,0.28021 0.05792,0.35782 -0.147553,0.23083 -0.170251,-0.10522 -0.309546,-0.0939 -0.309546,0.0252 0,0.41006 -1.096287,0.89987 -2.28926,1.02282 l -1.195515,0.12321 0.04908,-2.18703 c 0.06506,-2.8995 -0.05148,-3.61921 -0.268468,-1.65787 l -0.175626,1.5875 -0.04448,-1.47726 c -0.02446,-0.81249 0.03675,-1.55849 0.13604,-1.65777 0.220875,-0.22088 0.141046,-7.01598 -0.188523,-16.04726 -0.135414,-3.71078 -0.248541,-7.31242 -0.251393,-8.00364 l -0.0052,-1.25678 h 3.57978 3.57978 l -0.07405,-3.34715 -0.07405,-3.34715 -3.505729,0.0478 -3.505729,0.0478 -0.03755,-1.92615 c -0.03215,-1.64912 -0.0648,-1.77394 -0.227038,-0.86782 l -0.189492,1.05833 -0.03755,-1.12448 c -0.02065,-0.61846 0.05175,-1.12423 0.160891,-1.12392 0.109141,3e-4 0.158609,-0.77143 0.10993,-1.71495 l -0.08851,-1.71551 6.306215,-0.071 6.306216,-0.071 v -5.68854 c 0,-5.52172 -0.01552,-5.6877 -0.529167,-5.65984 -0.291042,0.0158 -2.196041,0.27663 -4.233333,0.57966 -8.442512,1.25574 -14.234103,1.63841 -27.516665,1.81812 -17.205197,0.23278 -29.402032,-0.50493 -40.72404,-2.46313 -0.90765,-0.15699 -1.01495,-0.12302 -0.86293,0.27315 0.0978,0.25481 0.0654,0.38553 -0.0742,0.29926 -0.1508,-0.0932 -0.24917,1.86979 -0.25121,5.01334 -0.002,3.48909 0.0884,5.16652 0.27918,5.16652 0.15541,0 0.21402,0.17859 0.13026,0.39687 -0.13275,0.34595 0.65794,0.39688 6.16148,0.39688 h 6.313768 l -0.0576,1.12448 c -0.0316,0.61846 -0.0786,2.26296 -0.10436,3.65444 l -0.0468,2.52997 -3.37343,-0.0546 c -1.855388,-0.03 -3.552038,0.0436 -3.770318,0.16359 -0.31573,0.17357 -0.39687,0.81695 -0.39687,3.14695 0,1.61083 0.0963,2.92881 0.21405,2.92884 0.11773,4e-5 0.14047,0.11913 0.0505,0.26465 -0.10597,0.17147 1.11125,0.26458 3.458668,0.26458 h 3.62218 l -0.16091,2.97657 c -0.0885,1.63711 -0.2358,5.95312 -0.32732,9.59114 -0.0915,3.63802 -0.20521,7.09084 -0.25263,7.67292 -0.0474,0.58208 -0.0943,3.17169 -0.10425,5.75469 l -0.018,4.69635 -0.8599,-0.008 c -0.47294,-0.004 -1.09802,-0.14307 -1.38906,-0.30811 z m 74.744789,-25.72968 c 0,-0.27926 -0.507765,-0.39659 -0.658791,-0.15222 -0.0914,0.14789 0.01943,0.26889 0.246301,0.26889 0.22687,0 0.41249,-0.0525 0.41249,-0.11667 z m 2.116664,-0.002 c 0,-0.20525 -1.030432,-0.32622 -1.309506,-0.15375 -0.172269,0.10647 0.0496,0.20166 0.499878,0.21446 0.445297,0.0127 0.809628,-0.0147 0.809628,-0.0607 z m -6.349997,-0.67463 c 0,-0.14552 -0.126089,-0.26458 -0.280198,-0.26458 -0.154109,0 -0.206614,0.11906 -0.116677,0.26458 0.08994,0.14553 0.216026,0.26459 0.280198,0.26459 0.06417,0 0.116677,-0.11906 0.116677,-0.26459 z m 9.454557,-33.70803 c 0.0872,-0.0873 -0.54582,-0.15026 -1.40681,-0.14003 -0.87699,0.0104 -1.36058,0.0996 -1.09961,0.20289 0.54024,0.21372 2.2733,0.17026 2.50642,-0.0629 z m -26.520181,-0.42321 c 0.08994,-0.14552 -0.02913,-0.26459 -0.264583,-0.26459 -0.235458,0 -0.35452,0.11907 -0.264584,0.26459 0.08994,0.14552 0.209,0.26458 0.264584,0.26458 0.05558,0 0.174646,-0.11906 0.264583,-0.26458 z m 3.108854,0.0779 c -0.327422,-0.0631 -0.863203,-0.0631 -1.190625,0 -0.327422,0.0631 -0.05953,0.11467 0.595313,0.11467 0.654843,0 0.922734,-0.0516 0.595312,-0.11467 z m -9.39822,-1.56062 c -0.08792,-0.0879 -0.316122,-0.0973 -0.507118,-0.0209 -0.211067,0.0845 -0.148372,0.14716 0.159852,0.15985 0.278915,0.0115 0.435185,-0.051 0.347266,-0.13896 z m 15.345833,-1.05834 c -0.08792,-0.0879 -0.316122,-0.0973 -0.507118,-0.0209 -0.211067,0.0845 -0.148373,0.14715 0.159852,0.15985 0.278915,0.0115 0.435184,-0.0511 0.347266,-0.13897 z m 13.237763,-0.5511 c -0.252965,-0.0662 -0.729215,-0.0686 -1.058334,-0.005 -0.329118,0.0633 -0.122147,0.11747 0.459936,0.12041 0.582084,0.003 0.851362,-0.0488 0.598398,-0.11507 z m 2.113581,-5.9e-4 c -0.25466,-0.0666 -0.67138,-0.0666 -0.92604,0 -0.254663,0.0666 -0.0463,0.121 0.46302,0.121 0.50932,0 0.71768,-0.0545 0.46302,-0.121 z m 1.12448,-0.2145 c 0,-0.21828 -0.0468,-0.39687 -0.10399,-0.39687 -0.0572,0 -0.17251,0.17859 -0.25627,0.39687 -0.0838,0.21829 -0.037,0.39688 0.10398,0.39688 0.14095,0 0.25628,-0.17859 0.25628,-0.39688 z M 3.2474588,118.32914 c -0.25467,-0.0665 -0.67139,-0.0665 -0.92605,0 -0.25466,0.0666 -0.0463,0.121 0.46302,0.121 0.50933,0 0.71769,-0.0545 0.46303,-0.121 z m 15.4781202,-1.58035 c -0.1819,-0.0734 -0.47956,-0.0734 -0.66146,0 -0.1819,0.0734 -0.0331,0.13345 0.33073,0.13345 0.3638,0 0.51263,-0.06 0.33073,-0.13345 z m 5.683028,-2.36587 c -0.0879,-0.0879 -0.31612,-0.0973 -0.50712,-0.0209 -0.21107,0.0845 -0.14837,0.14716 0.15985,0.15985 0.27892,0.0115 0.43519,-0.051 0.34727,-0.13896 z m 66.116528,-13.17358 c -0.06876,-0.46849 -1.261932,-1.737193 -1.639462,-1.743243 -0.156866,-0.003 0.14079,0.46944 0.661458,1.048773 1.08436,1.20654 1.04953,1.18181 0.978004,0.69447 z m -78.137206,-0.56601 c 0.61133,-0.839933 0.45015,-0.836033 -0.34308,0.008 -0.34177,0.3638 -0.51136,0.65771 -0.37685,0.65314 0.13451,-0.005 0.45848,-0.30223 0.71993,-0.66146 z m 21.088168,68.5354 v -15.21355 h 17.727082 17.727082 v 15.21355 15.21354 H 51.203179 33.476097 Z m -0.50828,11.8842 c 0.0127,-0.30823 0.0754,-0.37092 0.15985,-0.15986 0.0764,0.191 0.067,0.4192 -0.0209,0.50712 -0.0879,0.0879 -0.15046,-0.0684 -0.13897,-0.34726 z m 0,-1.05834 c 0.0127,-0.30822 0.0754,-0.37092 0.15985,-0.15985 0.0764,0.191 0.067,0.4192 -0.0209,0.50712 -0.0879,0.0879 -0.15046,-0.0683 -0.13897,-0.34727 z m -17.196048,-1.005 -0.63871,-0.82503 0.75697,0.71958 c 0.41633,0.39578 0.70375,0.76704 0.63871,0.82503 -0.065,0.058 -0.40568,-0.26582 -0.75697,-0.71958 z m 17.236548,-0.69274 c 0,-0.50932 0.0545,-0.71768 0.121,-0.46302 0.0665,0.25466 0.0665,0.67138 0,0.92604 -0.0666,0.25466 -0.121,0.0463 -0.121,-0.46302 z m -7.14375,-1.05833 c 0,-0.50933 0.0545,-0.71769 0.121,-0.46302 0.0665,0.25466 0.0665,0.67138 0,0.92604 -0.0666,0.25466 -0.121,0.0463 -0.121,-0.46302 z m -13.766538,-1.62434 c -0.77111,-0.74159 -1.35945,-1.39092 -1.30741,-1.44296 0.052,-0.052 0.73841,0.55729 1.52528,1.35405 1.80121,1.82387 1.65024,1.88548 -0.21787,0.0889 z m 20.890678,0.83059 c 0,-0.36381 0.0601,-0.51263 0.13345,-0.33073 0.0734,0.1819 0.0734,0.47956 0,0.66146 -0.0734,0.1819 -0.13345,0.0331 -0.13345,-0.33073 z m 56.195591,-0.0718 c 0.071,-0.18503 0.394688,-0.49834 0.7193,-0.69624 0.562889,-0.34316 0.560518,-0.32759 -0.05123,0.33642 -0.716207,0.7774 -0.857518,0.85351 -0.66807,0.35982 z m -13.32329,-7.46879 c 0.0054,-0.43656 0.06469,-0.58312 0.131773,-0.32569 0.06708,0.25743 0.06267,0.61462 -0.0098,0.79375 -0.07248,0.17913 -0.127362,-0.0315 -0.121969,-0.46806 z m -49.741661,-0.79375 c 0.005,-0.43656 0.0647,-0.58312 0.13177,-0.32569 0.0671,0.25743 0.0627,0.61462 -0.01,0.79375 -0.0725,0.17913 -0.12737,-0.0315 -0.12197,-0.46806 z m 49.492221,-7.9375 c 0.0029,-0.58208 0.05712,-0.78905 0.120406,-0.45993 0.06329,0.32912 0.06088,0.80537 -0.0053,1.05833 -0.06622,0.25296 -0.118003,-0.0163 -0.115066,-0.5984 z m -49.227641,-0.79379 c 0.005,-0.43656 0.0647,-0.58312 0.13177,-0.32569 0.0671,0.25743 0.0627,0.61462 -0.01,0.79375 -0.0725,0.17913 -0.12736,-0.0315 -0.12197,-0.46806 z m 6.61458,-4.7625 c 0.005,-0.43656 0.0647,-0.58312 0.13178,-0.32569 0.0671,0.25743 0.0627,0.61462 -0.01,0.79375 -0.0725,0.17913 -0.12736,-0.0315 -0.12197,-0.46806 z m 42.302642,-0.28663 c 0.0127,-0.30822 0.07539,-0.37092 0.159852,-0.15985 0.07643,0.19099 0.06703,0.4192 -0.02089,0.50712 -0.08792,0.0879 -0.150453,-0.0683 -0.138964,-0.34727 z m -41.765952,-10.89682 0.0732,-3.8978 0.66146,-0.0533 0.661458,-0.0533 -0.661458,0.22539 c -0.3785,0.12897 6.897698,0.23667 17.009377,0.25177 l 17.670836,0.0264 -0.03499,3.70136 -0.03499,3.70137 -17.709041,-0.002 -17.709042,-0.002 z m -6.6528,0.84265 c 0.0127,-0.30822 0.0754,-0.37091 0.15986,-0.15985 0.0764,0.191 0.067,0.4192 -0.0209,0.50712 -0.0879,0.0879 -0.15045,-0.0683 -0.13897,-0.34727 z m 6.11611,-4.21128 c 0.005,-0.43656 0.0647,-0.58312 0.13178,-0.32569 0.0671,0.25743 0.0627,0.61462 -0.01,0.79375 -0.0725,0.17913 -0.12736,-0.0315 -0.12197,-0.46806 z m -14.140638,-0.5836 c 0.32742,-0.0631 0.8632,-0.0631 1.19063,0 0.32742,0.0631 0.0595,0.11466 -0.59532,0.11466 -0.65484,0 -0.92273,-0.0516 -0.59531,-0.11466 z m 2.1332,0.006 c 0.191,-0.0764 0.4192,-0.067 0.50712,0.0209 0.0879,0.0879 -0.0684,0.15046 -0.34726,0.13897 -0.30823,-0.0127 -0.37092,-0.0754 -0.15986,-0.15986 z m 4.618708,-0.003 c 0.25743,-0.0671 0.61462,-0.0627 0.79375,0.01 0.17913,0.0725 -0.0315,0.12736 -0.46806,0.12197 -0.43656,-0.005 -0.58312,-0.0647 -0.32569,-0.13178 z m 9.91684,-0.003 c 0.327422,-0.0631 0.863203,-0.0631 1.190625,0 0.327422,0.0631 0.05953,0.11466 -0.595312,0.11466 -0.654844,0 -0.922735,-0.0516 -0.595313,-0.11466 z m 2.38125,0 c 0.327422,-0.0631 0.863203,-0.0631 1.190625,0 0.327422,0.0631 0.05953,0.11466 -0.595313,0.11466 -0.654843,0 -0.922734,-0.0516 -0.595312,-0.11466 z m 2.248958,0.004 c 0.254662,-0.0665 0.67138,-0.0665 0.926042,0 0.254661,0.0666 0.0463,0.121 -0.463021,0.121 -0.509323,0 -0.717682,-0.0545 -0.463021,-0.121 z m 2.000911,0.002 c 0.190997,-0.0764 0.4192,-0.067 0.507119,0.0209 0.08792,0.0879 -0.06835,0.15046 -0.347266,0.13897 -0.308225,-0.0127 -0.370919,-0.0754 -0.159853,-0.15986 z m 1.322917,0 c 0.190996,-0.0764 0.419199,-0.067 0.507118,0.0209 0.08792,0.0879 -0.06835,0.15046 -0.347265,0.13897 -0.308225,-0.0127 -0.37092,-0.0754 -0.159853,-0.15986 z m 1.574048,-0.006 c 0.329119,-0.0633 0.805369,-0.0609 1.058334,0.005 0.252964,0.0662 -0.01631,0.118 -0.598398,0.11506 -0.582083,-0.003 -0.789054,-0.0571 -0.459936,-0.1204 z m 1.865535,0.006 c 0.190996,-0.0764 0.419199,-0.067 0.507118,0.0209 0.08792,0.0879 -0.06835,0.15046 -0.347265,0.13897 -0.308225,-0.0127 -0.37092,-0.0754 -0.159853,-0.15986 z m 2.369452,-0.011 c 0.475549,-0.0589 1.189924,-0.0577 1.5875,0.003 0.397576,0.0604 0.0085,0.10855 -0.864634,0.10707 -0.873125,-0.001 -1.198415,-0.0509 -0.722866,-0.10977 z m 5.286928,3.6e-4 c 0.472943,-0.0587 1.246849,-0.0587 1.719792,0 0.472942,0.0587 0.08599,0.10671 -0.859896,0.10671 -0.945886,0 -1.332839,-0.048 -0.859896,-0.10671 z m 3.962848,4.4e-4 c 0.469697,-0.0584 1.303135,-0.0594 1.852084,-0.002 0.548949,0.0573 0.164651,0.1051 -0.853995,0.10628 -1.018645,0.001 -1.467785,-0.0457 -0.998089,-0.10414 z m 3.97939,-8e-4 c 0.475549,-0.0589 1.189924,-0.0577 1.5875,0.003 0.397576,0.0604 0.0085,0.10855 -0.864634,0.10707 -0.873125,-0.001 -1.198415,-0.0509 -0.722866,-0.10977 z m 2.905678,0.005 c 0.327422,-0.0631 0.863203,-0.0631 1.190625,0 0.327422,0.0631 0.05953,0.11466 -0.595312,0.11466 -0.654844,0 -0.922735,-0.0516 -0.595313,-0.11466 z m 2.133203,0.006 c 0.190996,-0.0764 0.419199,-0.067 0.507118,0.0209 0.08792,0.0879 -0.06835,0.15046 -0.347265,0.13897 -0.308225,-0.0127 -0.37092,-0.0754 -0.159853,-0.15986 z m 8.202083,0 c 0.190996,-0.0764 0.419199,-0.067 0.507118,0.0209 0.08792,0.0879 -0.06835,0.15046 -0.347266,0.13897 -0.308224,-0.0127 -0.370919,-0.0754 -0.159852,-0.15986 z m 3.026172,-0.0159 c 1.127786,-0.0496 2.973255,-0.0496 4.101041,0 1.127787,0.0496 0.205052,0.0902 -2.050521,0.0902 -2.255572,0 -3.178307,-0.0406 -2.05052,-0.0902 z m 6.882804,0.007 c 0.402183,-0.0608 0.997496,-0.0592 1.322917,0.004 0.325421,0.0628 -0.0036,0.11256 -0.731242,0.11057 -0.727605,-0.002 -0.993858,-0.0534 -0.591675,-0.11418 z m -71.486385,-8.69573 c 0.0127,-0.30823 0.0754,-0.37092 0.15985,-0.15986 0.0764,0.191 0.067,0.4192 -0.0209,0.50712 -0.0879,0.0879 -0.15045,-0.0684 -0.13896,-0.34726 z m 24.127368,0.23557 c 0.257431,-0.0671 0.614619,-0.0627 0.79375,0.01 0.179132,0.0725 -0.03149,0.12736 -0.468056,0.12197 -0.436562,-0.005 -0.583125,-0.0647 -0.325694,-0.13177 z m 25.527255,0.008 c 0.181901,-0.0734 0.479557,-0.0734 0.661459,0 0.181901,0.0734 0.03307,0.13345 -0.33073,0.13345 -0.363802,0 -0.51263,-0.06 -0.330729,-0.13345 z m -30.675125,-0.27009 c 0.19099,-0.0764 0.4192,-0.067 0.50711,0.0209 0.0879,0.0879 -0.0683,0.15046 -0.34726,0.13897 -0.30823,-0.0127 -0.37092,-0.0754 -0.15985,-0.15985 z m -3.70417,-0.26459 c 0.191,-0.0764 0.4192,-0.067 0.50712,0.0209 0.0879,0.0879 -0.0683,0.15045 -0.34727,0.13896 -0.30822,-0.0127 -0.37092,-0.0754 -0.15985,-0.15985 z m 43.127081,0 c 0.190996,-0.0764 0.419199,-0.067 0.507118,0.0209 0.08792,0.0879 -0.06835,0.15045 -0.347265,0.13896 -0.308225,-0.0127 -0.37092,-0.0754 -0.159853,-0.15985 z M 87.18749,98.006977 c -0.341235,-0.36323 -0.561891,-0.71896 -0.490347,-0.7905 0.07155,-0.0715 0.393079,0.22564 0.71452,0.66042 0.711991,0.96301 0.612545,1.02072 -0.224173,0.13008 z m -2.514521,-2.11538 -0.79375,-0.6565 0.859895,0.41261 c 0.472943,0.22693 0.859896,0.52295 0.859896,0.65781 0,0.34001 -0.03154,0.32591 -0.926041,-0.41392 z m -1.719792,-1.32525 c -0.189851,-0.22876 -0.215566,-0.39688 -0.0607,-0.39688 0.14777,0 0.337205,0.1786 0.420968,0.39688 0.08376,0.21828 0.111079,0.39687 0.0607,0.39687 -0.05038,0 -0.239811,-0.17859 -0.420968,-0.39687 z m -1.466087,-0.94365 c -0.09592,-0.1552 -0.117656,-0.33893 -0.0483,-0.40828 0.06936,-0.0694 0.196603,0.0576 0.282774,0.28219 0.178907,0.46622 0.02642,0.54823 -0.234472,0.12609 z m -0.79375,-0.52916 c -0.09592,-0.1552 -0.117656,-0.33893 -0.0483,-0.40829 0.06935,-0.0694 0.196603,0.0576 0.282774,0.28219 0.178907,0.46622 0.02642,0.54823 -0.234472,0.1261 z M 24.587727,90.689614 c -0.11739,-0.189955 -0.0733,-0.234517 0.11624,-0.117393 0.168,0.103833 0.30546,0.08254 0.30546,-0.04731 0,-0.129855 0.1786,-0.236101 0.39688,-0.236101 0.52787,0 0.50035,0.102394 -0.11624,0.432379 -0.36643,0.196108 -0.5672,0.187083 -0.70234,-0.03157 z M 63.903178,85.68708 c 0,-0.154109 0.119063,-0.206613 0.264583,-0.116676 0.145521,0.08994 0.264584,0.216026 0.264584,0.280198 0,0.06417 -0.119063,0.116677 -0.264584,0.116677 -0.14552,0 -0.264583,-0.12609 -0.264583,-0.280199 z m -2.711979,-0.424196 c 0.181901,-0.0734 0.479557,-0.0734 0.661458,0 0.181901,0.0734 0.03307,0.133452 -0.330729,0.133452 -0.363802,0 -0.51263,-0.06005 -0.330729,-0.133452 z"
               id="path5-5" /><path
               style="fill:#000000;fill-opacity:1"
               d="m -8.6340153,187.23872 c -0.65484,-0.0873 -1.13109,-0.17659 -1.05833,-0.19844 0.0728,-0.0219 2.75166,-0.33881 5.9531198,-0.70434 7.1608601,-0.81758 14.0814505,-1.17651 22.8047005,-1.18273 3.66581,-0.003 6.72783,-0.10623 6.80448,-0.23025 0.221282,-0.35827 0.177221,-17.40219 0.79901,-28.41565 l 0.16058,-2.84427 h -3.70886 -3.70887 v -3.05514 -3.05514 l 3.77032,0.0408 3.77031,0.0408 0.13229,-4.14256 0.13229,-4.14257 -6.41639,0.0793 -6.41638,0.0793 2.4e-4,-5.39162 2.4e-4,-5.39163 1.12448,0.18372 c 28.523328,4.6604 65.027093,1.59266 71.558999,-0.0234 l 0.584527,-0.14461 0.07693,5.31791 0.07693,5.31792 -6.447004,-2.7e-4 -6.287466,0.59503 c 0.08774,0.32743 0.161163,2.1729 0.16315,4.10105 l 0.0036,3.50573 3.63802,-2.4e-4 3.638021,-2.4e-4 -0.05373,2.9768 -0.05373,2.9768 h -3.603801 -3.6038 l 0.160833,3.04271 c 0.447719,8.47009 0.671154,20.42313 0.671941,28.4811 l 5.490104,0.0526 c 10.812419,0.10366 20.863481,0.74898 29.038021,1.86435 1.32794,0.18119 1.01079,0.21681 -1.93974,0.21785 -2.018,7.1e-4 -3.37652,-0.0943 -3.175,-0.22205 0.53672,-0.34024 -0.24698,-0.29711 -1.3693,0.0754 -1.10512,0.36676 -109.8003253,0.52555 -109.8003253,0.16041 0,-0.22842 -1.3498,-0.17569 -1.5875,0.062 -0.0728,0.0728 -0.66807,0.0609 -1.32292,-0.0264 z m 112.7124953,-0.4803 c 0.49392,-0.14113 0,0 0,0 z m -34.792711,-33.08832 -18.190134,-0.0697 -18.19014,-0.0697 1.2e-4,31.22083 18.13073,-0.0203 18.130738,-0.0203 z m -0.05684,-10.15508 0.05684,-4.13951 -18.190104,1.8e-4 -18.1901,1.7e-4 v 4.05695 c 0,2.23132 0.0498,4.10655 0.11067,4.16718 0.0609,0.0606 8.22083,0.0977 18.13326,0.0824 l 18.022589,-0.0279 z"
               id="path1-1"
               sodipodi:nodetypes="sssccscccccccccccccssccccsscccccccscssssssssscccccccccccccccscc" /></g></g></g><text
         xml:space="preserve"
         style="font-size:12.7px;text-align:start;writing-mode:lr-tb;direction:ltr;text-anchor:start;fill:#800000;stroke-width:0.264583"
         x="77.988686"
         y="155.62132"
         id="text9"><tspan
           sodipodi:role="line"
           id="tspan9"
           style="font-style:normal;font-variant:normal;font-weight:normal;font-stretch:normal;font-size:12.7px;font-family:'Hasklug Nerd Font Mono';-inkscape-font-specification:'Hasklug Nerd Font Mono';fill:#800000;stroke-width:0.264583"
           x="77.988686"
           y="155.62132">TEMPL PROJECT</tspan></text></g><text
       xml:space="preserve"
       transform="scale(0.26458333)"
       id="text10"
       style="font-style:normal;font-variant:normal;font-weight:normal;font-stretch:normal;font-size:48px;font-family:'Hasklug Nerd Font Mono';-inkscape-font-specification:'Hasklug Nerd Font Mono';text-align:start;writing-mode:lr-tb;direction:ltr;white-space:pre;shape-inside:url(#rect10);display:inline;opacity:0;fill:#808080;fill-opacity:1" /></g></svg>
